<svg id="Layer_1" data-name="Layer 1" xmlns="http://www.w3.org/2000/svg" xmlns:xlink="http://www.w3.org/1999/xlink" width="181.36mm" height="116.55mm" viewBox="0 0 514.09 330.38"><defs><style>.cls-1,.cls-10,.cls-2,.cls-8,.cls-9{fill:none;}.cls-10,.cls-11,.cls-15,.cls-16,.cls-17,.cls-2,.cls-22,.cls-26,.cls-27,.cls-28,.cls-3,.cls-4,.cls-8,.cls-9{stroke:#512da8;}.cls-10,.cls-11,.cls-17,.cls-2,.cls-26,.cls-27,.cls-28,.cls-3,.cls-4,.cls-8{stroke-linecap:round;stroke-linejoin:round;}.cls-11,.cls-15,.cls-16,.cls-17,.cls-2,.cls-22,.cls-26,.cls-27,.cls-28,.cls-3,.cls-4,.cls-9{stroke-width:2.13px;}.cls-3{fill:#cdd5d7;}.cls-4{fill:#68c49f;}.cls-22,.cls-27,.cls-5{fill:#fff;}.cls-6{clip-path:url(#clip-path);}.cls-7{fill:#ca9e67;}.cls-8{stroke-width:2px;}.cls-15,.cls-16,.cls-9{stroke-miterlimit:10;}.cls-10{stroke-width:1.5px;}.cls-11{fill:#c0d44c;}.cls-12{fill:#ead3b7;}.cls-13{clip-path:url(#clip-path-2);}.cls-14{fill:#9d9fc9;}.cls-15,.cls-17,.cls-21{fill:#ec847d;}.cls-16,.cls-28{fill:#b2b4db;}.cls-18{clip-path:url(#clip-path-3);}.cls-19,.cls-26{fill:#b7bec0;}.cls-20{opacity:0.5;}.cls-23{clip-path:url(#clip-path-4);}.cls-24{fill:#f1c883;}.cls-25{fill:#512da8;}</style><clipPath id="clip-path"><path class="cls-1" d="M381.88,200.94a17.72,17.72,0,0,1-17.72,17.72h0a17.72,17.72,0,0,1-17.72-17.72V188.77a17.72,17.72,0,0,1,17.72-17.72h0a17.72,17.72,0,0,1,17.72,17.72v12.17Z"/></clipPath><clipPath id="clip-path-2"><path class="cls-1" d="M276.53,143.47a35.2,35.2,0,0,1-35.2,35.2h0a35.2,35.2,0,0,1-35.2-35.2V119.29a35.2,35.2,0,0,1,35.2-35.2h0a35.2,35.2,0,0,1,35.2,35.2v24.18Z"/></clipPath><clipPath id="clip-path-3"><path class="cls-1" d="M493.4,263a26.72,26.72,0,0,1-26.72,26.72h0A26.72,26.72,0,0,1,440,263V244.59a26.72,26.72,0,0,1,26.72-26.72h0a26.72,26.72,0,0,1,26.72,26.72V263Z"/></clipPath><clipPath id="clip-path-4"><path class="cls-1" d="M133.7,113a41,41,0,0,1-41,41h0a41,41,0,0,1-41-41V84.88a41,41,0,0,1,41-41h0a41,41,0,0,1,41,41V113Z"/></clipPath></defs><title>Favro Illustrations_Home 03</title><line class="cls-2" x1="375.46" y1="129.4" x2="389.22" y2="129.4"/><path class="cls-3" d="M336.32,238.54a71.57,71.57,0,0,0-.67,10,100,100,0,0,0,6.25,35.69c0.9,2.41,1.75,5.06,2.54,7.9h39.3c0.79-2.84,1.63-5.49,2.54-7.9a100,100,0,0,0,6.25-35.69,71.26,71.26,0,0,0-.67-10H336.32Z"/><path class="cls-4" d="M394.81,244.95H333.35c-0.05,1.14-.08,2.33-0.08,3.57a101.71,101.71,0,0,0,6.4,36.53,94.66,94.66,0,0,1,2.94,9.44h42.94a95.7,95.7,0,0,1,2.94-9.44,101.67,101.67,0,0,0,6.4-36.53C394.89,247.28,394.86,246.09,394.81,244.95Z"/><path class="cls-4" d="M394.89,245c-0.74-16.55-6.45-23.21-6.32-44,0-5.1,0-9.81,0-9.81a24.41,24.41,0,1,0-48.82,0s0,4.71,0,9.81c0.13,20.74-5.58,27.4-6.32,44h61.46Z"/><path class="cls-5" d="M381.88,200.94a17.72,17.72,0,0,1-17.72,17.72h0a17.72,17.72,0,0,1-17.72-17.72V188.77a17.72,17.72,0,0,1,17.72-17.72h0a17.72,17.72,0,0,1,17.72,17.72v12.17Z"/><g class="cls-6"><path class="cls-7" d="M341.71,190.46a23.8,23.8,0,0,1-3.79.79l12-5.6s9.66-8.25,9.29-7.87c0.4-.13,1.62,1,3.41,1.47,3.57,1,14.12,1.81,14.12,1.81l5.34-.66,5.52-2.28c0.1-2.66-.28-13.31-11.94-19.76a25.18,25.18,0,0,0-13.43-2.46s-5.33-4.79-14.43-3.65c0,0-15.49,5.12-20.71,21.06a55.66,55.66,0,0,0-2.92,19.74C328.72,192.69,338.27,191.79,341.71,190.46Z"/><path class="cls-8" d="M386.2,199.71c1.26-11,1.32-22.48,1.32-22.48a20.76,20.76,0,0,0-9.77-17.64,23,23,0,0,0-20.6-2.28c-6.11,2.3-7.51,6-7.51,9a9.39,9.39,0,0,0,2.65,6.35c11.2,12,29.75,7.75,29.75,7.75"/><path class="cls-8" d="M359.17,177.79S349,189.33,337,190.78"/></g><path class="cls-9" d="M381.88,200.94a17.72,17.72,0,0,1-17.72,17.72h0a17.72,17.72,0,0,1-17.72-17.72V188.77a17.72,17.72,0,0,1,17.72-17.72h0a17.72,17.72,0,0,1,17.72,17.72v12.17Z"/><path class="cls-8" d="M358.39,206.36s4.09,1.48,11.78,0"/><path class="cls-10" d="M357.81,193a2.65,2.65,0,1,1-5.3,0"/><path class="cls-10" d="M375.48,193a2.65,2.65,0,0,1-5.3,0"/><path class="cls-8" d="M346.69,220.61a28.64,28.64,0,0,0,35.19,0"/><path class="cls-8" d="M364.37,226.35a12,12,0,0,0-7.45,13.16Z"/><path class="cls-8" d="M364.2,226.35a12,12,0,0,1,7.45,13.16Z"/><circle class="cls-4" cx="364.37" cy="226.65" r="1.97"/><path class="cls-3" d="M186.17,218.16A142,142,0,0,0,184.84,238c0,25.43,4.06,48.62,12.41,70.91,1.79,4.79,3.49,10.06,5,15.7h78.08c1.56-5.64,3.25-10.91,5-15.7,8.35-22.28,12.41-45.48,12.41-70.91a142,142,0,0,0-1.33-19.83H186.17Z"/><path class="cls-11" d="M302.37,230.89H180.28c-0.1,2.27-.16,4.63-0.16,7.1,0,31.1,6,54.55,12.71,72.56a188.16,188.16,0,0,1,5.84,18.76H284a188.16,188.16,0,0,1,5.84-18.76c6.75-18,12.71-41.46,12.71-72.56C302.53,235.52,302.47,233.16,302.37,230.89Z"/><path class="cls-11" d="M302.37,230.89c-1.46-32.88-12.8-46.11-12.55-87.32,0.06-10.13,0-19.49,0-19.49a48.5,48.5,0,1,0-97,0s-0.06,9.35,0,19.49c0.25,41.2-11.08,54.44-12.55,87.32H302.37Z"/><path class="cls-12" d="M276.53,143.47a35.2,35.2,0,0,1-35.2,35.2h0a35.2,35.2,0,0,1-35.2-35.2V119.29a35.2,35.2,0,0,1,35.2-35.2h0a35.2,35.2,0,0,1,35.2,35.2v24.18Z"/><g class="cls-13"><path class="cls-14" d="M196.74,122.64a47,47,0,0,1-7.53,1.57L213,113.09s19.19-16.4,18.45-15.62c0.81-.25,3.22,1.91,6.77,2.92,7.08,2,28.05,3.59,28.05,3.59l10.61-1.3,11-4.53c0.19-5.29-.56-26.44-23.71-39.24A50,50,0,0,0,237.42,54s-10.59-9.52-28.67-7.24c0,0-30.77,10.16-41.13,41.83a110.51,110.51,0,0,0-5.81,39.21C170.92,127.08,189.89,125.28,196.74,122.64Z"/><path class="cls-8" d="M285.12,141c2.51-21.86,2.61-44.66,2.61-44.66-0.47-18-9.82-28.76-19.41-35a45.61,45.61,0,0,0-40.93-4.52c-12.13,4.57-14.91,12-14.91,17.83a18.65,18.65,0,0,0,5.26,12.63c22.24,23.8,59.1,15.4,59.1,15.4"/><path class="cls-10" d="M260.93,108.42c1,0,2.11-.11,3.18-0.22"/><path class="cls-10" d="M241.23,105.63a61.76,61.76,0,0,0,16.22,2.79"/><path class="cls-8" d="M231.42,97.47s-20.16,22.93-44.07,25.81"/></g><path class="cls-9" d="M276.53,143.47a35.2,35.2,0,0,1-35.2,35.2h0a35.2,35.2,0,0,1-35.2-35.2V119.29a35.2,35.2,0,0,1,35.2-35.2h0a35.2,35.2,0,0,1,35.2,35.2v24.18Z"/><path class="cls-8" d="M258.43,127.4a6.1,6.1,0,0,1,12.21,0"/><path class="cls-8" d="M212.58,127.4a6.1,6.1,0,0,1,12.21,0"/><path class="cls-15" d="M241.58,145.56a4.37,4.37,0,1,1-8.56-1.15l5.75-21.22a3,3,0,0,1,5.62,0l5.75,21.22a4.37,4.37,0,1,1-8.56,1.15"/><line class="cls-10" x1="243.7" y1="137.42" x2="251.83" y2="137.42"/><line class="cls-10" x1="245.65" y1="142.3" x2="253.78" y2="142.3"/><path class="cls-10" d="M237.67,168.47s2.93-1.29,7.81,0"/><path class="cls-8" d="M229.87,159.69s8.13,2.94,23.41,0"/><line class="cls-10" x1="264.54" y1="121.29" x2="264.54" y2="119.14"/><line class="cls-10" x1="266.99" y1="121.67" x2="267.94" y2="119.74"/><line class="cls-10" x1="262.09" y1="121.67" x2="261.14" y2="119.74"/><line class="cls-10" x1="218.68" y1="121.29" x2="218.68" y2="119.14"/><line class="cls-10" x1="221.14" y1="121.67" x2="222.08" y2="119.74"/><line class="cls-10" x1="216.23" y1="121.67" x2="215.28" y2="119.74"/><path class="cls-8" d="M284.62,177c-0.35-2.93-.65-6-0.88-9.21"/><path class="cls-8" d="M291.76,214.31c-2.15-10.18-4.64-19.94-6.38-31.61"/><path class="cls-8" d="M296.06,248.46a169.82,169.82,0,0,0-2.71-26"/><path class="cls-8" d="M216.42,180.47a40.55,40.55,0,0,0,49.81,0"/><path class="cls-8" d="M241.54,188.68a29.58,29.58,0,0,0-18.38,32.48Z"/><path class="cls-8" d="M241.12,188.68a29.57,29.57,0,0,1,18.38,32.48Z"/><circle class="cls-11" cx="241.54" cy="189.42" r="4.86"/><path class="cls-3" d="M28.46,199.86A165.58,165.58,0,0,0,26.91,223c0,29.62,4.73,56.63,14.45,82.59,2.09,5.58,4.06,11.71,5.87,18.29h90.94c1.81-6.57,3.79-12.71,5.87-18.29,9.72-26,14.45-53,14.45-82.59a165.58,165.58,0,0,0-1.55-23.1H28.46Z"/><path class="cls-16" d="M163.8,214.69H21.6c-0.12,2.64-.18,5.39-0.18,8.27,0,36.22,6.94,63.54,14.8,84.51A219.55,219.55,0,0,1,43,329.32h99.37a219.78,219.78,0,0,1,6.8-21.85C157,286.5,164,259.18,164,223,164,220.08,163.92,217.33,163.8,214.69Z"/><line class="cls-8" x1="90.59" y1="223.54" x2="149.51" y2="223.54"/><path class="cls-3" d="M322.21,244.93a108.07,108.07,0,0,0-1,15.06,150.77,150.77,0,0,0,9.42,53.83c1.36,3.64,2.65,7.64,3.83,11.92h59.27c1.18-4.28,2.47-8.28,3.83-11.92A150.77,150.77,0,0,0,407,260a107.74,107.74,0,0,0-1-15.06H322.21Z"/><path class="cls-17" d="M410.43,254.59H317.74c-0.08,1.72-.12,3.51-0.12,5.39,0,23.61,4.53,41.42,9.65,55.09a142.71,142.71,0,0,1,4.43,14.24h64.77a142.92,142.92,0,0,1,4.43-14.24c5.12-13.67,9.64-31.48,9.64-55.09C410.54,258.11,410.5,256.31,410.43,254.59Z"/><line class="cls-8" x1="341.98" y1="261.84" x2="400.89" y2="261.84"/><path class="cls-17" d="M513,329.32c-1.11-25-9.72-35-9.53-66.29,0-7.69,0-14.79,0-14.79a36.82,36.82,0,1,0-73.63,0s0,7.1,0,14.79c0.19,31.28-8.41,41.33-9.53,66.29H513Z"/><path class="cls-5" d="M493.4,263a26.72,26.72,0,0,1-26.72,26.72h0A26.72,26.72,0,0,1,440,263V244.59a26.72,26.72,0,0,1,26.72-26.72h0a26.72,26.72,0,0,1,26.72,26.72V263Z"/><g class="cls-18"><path class="cls-19" d="M432.83,247.14a35.65,35.65,0,0,1-5.71,1.19l18-8.44s14.57-12.45,14-11.86c0.61-.19,2.45,1.45,5.14,2.21,5.38,1.52,21.3,2.72,21.3,2.72l8.05-1,8.33-3.44c0.15-4-.42-20.07-18-29.79A38,38,0,0,0,463.72,195s-8-7.23-21.77-5.5c0,0-23.36,7.72-31.23,31.76a83.9,83.9,0,0,0-4.41,29.76C413.23,250.5,427.64,249.15,432.83,247.14Z"/><path class="cls-8" d="M499.93,261.09c1.9-16.6,2-33.9,2-33.9-0.35-13.69-7.45-21.83-14.74-26.6a34.62,34.62,0,0,0-31.07-3.43c-9.21,3.47-11.32,9.1-11.32,13.53a14.16,14.16,0,0,0,4,9.59C465.66,238.35,493.65,232,493.65,232"/><path class="cls-10" d="M481.56,236.34c0.79,0,1.6-.08,2.41-0.17"/><path class="cls-10" d="M466.61,234.23a46.87,46.87,0,0,0,12.31,2.12"/><path class="cls-8" d="M459.16,228s-15.3,17.41-33.46,19.59"/></g><path class="cls-9" d="M493.4,263a26.72,26.72,0,0,1-26.72,26.72h0A26.72,26.72,0,0,1,440,263V244.59a26.72,26.72,0,0,1,26.72-26.72h0a26.72,26.72,0,0,1,26.72,26.72V263Z"/><path class="cls-8" d="M488.93,247.12a4.63,4.63,0,0,1-9.27,0"/><path class="cls-8" d="M454.12,247.12a4.63,4.63,0,0,1-9.27,0"/><path class="cls-15" d="M466.87,264.54a3.32,3.32,0,1,1-6.5-.88l4.37-16.11a2.27,2.27,0,0,1,4.27,0l4.36,16.11a3.32,3.32,0,1,1-6.5.88"/><line class="cls-10" x1="468.48" y1="258.36" x2="474.66" y2="258.36"/><line class="cls-10" x1="469.96" y1="262.06" x2="476.14" y2="262.06"/><path class="cls-10" d="M463.91,281.93a9.64,9.64,0,0,1,5.93,0"/><path class="cls-8" d="M458,275.27s6.17,2.23,17.77,0"/><g class="cls-20"><path class="cls-21" d="M487.37,265.61a3.85,3.85,0,1,1-3.85-3.85,3.85,3.85,0,0,1,3.85,3.85"/><path class="cls-21" d="M453.7,265.61a3.85,3.85,0,1,1-3.85-3.85,3.85,3.85,0,0,1,3.85,3.85"/><rect class="cls-1" x="445.99" y="261.75" width="41.38" height="7.7"/></g><path class="cls-8" d="M441.78,289.76a40.55,40.55,0,0,0,49.81,0"/><path class="cls-8" d="M466.83,298.19a21.78,21.78,0,0,0-13.54,23.92Z"/><path class="cls-8" d="M466.53,298.19a21.78,21.78,0,0,1,13.54,23.92Z"/><circle class="cls-17" cx="466.84" cy="298.73" r="3.58"/><line class="cls-22" x1="52.5" y1="329.32" x2="513.03" y2="329.32"/><path class="cls-16" d="M163.8,214.87c-1.71-38.29-14.91-53.71-14.62-101.7,0.07-11.8,0-22.7,0-22.7a56.49,56.49,0,1,0-113,0s-0.07,10.89,0,22.7c0.29,48-12.91,63.41-14.62,101.7H163.8Z"/><path class="cls-5" d="M133.7,113a41,41,0,0,1-41,41h0a41,41,0,0,1-41-41V84.88a41,41,0,0,1,41-41h0a41,41,0,0,1,41,41V113Z"/><g class="cls-23"><path class="cls-24" d="M40.77,88.78A55,55,0,0,1,32,90.61l27.67-13S82,58.56,81.16,59.46c0.94-.29,3.76,2.23,7.89,3.4C97.3,65.19,121.72,67,121.72,67l12.36-1.52,12.78-5.28c0.23-6.16-.65-30.79-27.61-45.71A58.25,58.25,0,0,0,88.15,8.84S75.82-2.24,54.75.41c0,0-35.83,11.84-47.91,48.72A128.68,128.68,0,0,0,.08,94.8C10.69,93.95,32.79,91.86,40.77,88.78Z"/><path class="cls-8" d="M143.71,110.19c2.92-25.46,3-52,3-52-0.54-21-11.43-33.49-22.61-40.81A53.12,53.12,0,0,0,76.47,12.1c-14.13,5.32-17.36,14-17.37,20.76a21.72,21.72,0,0,0,6.13,14.71c25.9,27.72,68.84,17.94,68.84,17.94S117,63.67,114,55.34"/><path class="cls-10" d="M115.53,72.22c1.22,0,2.46-.13,3.7-0.26"/><path class="cls-10" d="M92.59,69a72,72,0,0,0,18.89,3.25"/><path class="cls-8" d="M81.16,59.46S57.68,86.16,29.82,89.52"/></g><path class="cls-9" d="M133.7,113a41,41,0,0,1-41,41h0a41,41,0,0,1-41-41V84.88a41,41,0,0,1,41-41h0a41,41,0,0,1,41,41V113Z"/><path class="cls-15" d="M93.32,119.8A4.27,4.27,0,1,1,85,118.68l5.61-20.73a2.92,2.92,0,0,1,5.49,0l5.62,20.73a4.27,4.27,0,1,1-8.36,1.13"/><line class="cls-10" x1="95.39" y1="111.85" x2="103.34" y2="111.85"/><line class="cls-10" x1="97.3" y1="116.62" x2="105.24" y2="116.62"/><path class="cls-10" d="M88.45,145.16s3.41-1.5,9.09,0"/><path class="cls-8" d="M79.45,131.66a13.61,13.61,0,0,0,25.93,0H79.45Z"/><path class="cls-25" d="M83,136.4h18.83a12.06,12.06,0,0,1-9.46,4.74A11.78,11.78,0,0,1,83,136.4Z"/><path class="cls-8" d="M143.76,143.63c-0.4-2.93-.75-6-1-9.2"/><path class="cls-8" d="M151.57,180.8c-2.33-10.14-5-19.86-6.95-31.49"/><path class="cls-8" d="M156.49,214.87a169.72,169.72,0,0,0-3.18-26"/><path class="cls-8" d="M64.15,153.67a46.48,46.48,0,0,0,57.1,0"/><path class="cls-8" d="M93,164.12a41,41,0,0,0-25.46,45Z"/><path class="cls-8" d="M92.42,164.12a41,41,0,0,1,25.46,45Z"/><circle class="cls-16" cx="92.99" cy="165.14" r="6.73"/><path class="cls-8" d="M81.81,86.3c-2.75-1.49-7.52-2.87-15.6-2.37,0,0-13.17,1-14,9.43,0,0-3.09,15.93,8.45,18.7,0,0,15.77,4.22,23.57-11.54a17.23,17.23,0,0,0,1.64-7.45A7.89,7.89,0,0,0,81.81,86.3Z"/><path class="cls-8" d="M99.51,93.06a7.89,7.89,0,0,1,4.09-6.76c2.75-1.49,7.52-2.87,15.6-2.37,0,0,13.17,1,14,9.43,0,0,3.09,15.93-8.45,18.7,0,0-15.77,4.22-23.57-11.54A17.23,17.23,0,0,1,99.51,93.06Z"/><path class="cls-8" d="M85.93,91.91a16.39,16.39,0,0,1,13.65,0"/><circle class="cls-8" cx="115.92" cy="97.66" r="3.01"/><line class="cls-8" x1="115.45" y1="100.67" x2="122.25" y2="100.67"/><circle class="cls-8" cx="69.48" cy="97.66" r="3.01"/><line class="cls-8" x1="69.96" y1="100.67" x2="63.15" y2="100.67"/><line class="cls-26" x1="93.39" y1="2.18" x2="93.46" y2="17.48"/><line class="cls-26" x1="130.41" y1="12.51" x2="122.81" y2="25.8"/><line class="cls-26" x1="157.29" y1="39.98" x2="144.08" y2="47.69"/><line class="cls-26" x1="28.7" y1="38.62" x2="41.99" y2="46.21"/><line class="cls-26" x1="56.16" y1="11.73" x2="63.87" y2="24.95"/><path class="cls-16" d="M142.18,307.47C150,286.5,157,259.18,157,223"/><path class="cls-27" d="M457.22,105.42h-56a12,12,0,0,0-12,12v24a12,12,0,0,0,12,12h4v16l13.83-16h38.17a12,12,0,0,0,12-12v-24A12,12,0,0,0,457.22,105.42Z"/><circle class="cls-4" cx="364.08" cy="129.4" r="13.47"/><polyline class="cls-2" points="369.71 123.91 361.9 133.43 358.36 129.72"/><line class="cls-28" x1="413.52" y1="119.66" x2="449.49" y2="119.66"/><line class="cls-28" x1="413.52" y1="129.67" x2="449.49" y2="129.67"/><line class="cls-28" x1="413.52" y1="139.68" x2="434.79" y2="139.68"/></svg>