<?xml version="1.0" encoding="UTF-8" standalone="no"?>
<svg width="536px" height="252px" viewBox="0 0 536 252" version="1.1" xmlns="http://www.w3.org/2000/svg" xmlns:xlink="http://www.w3.org/1999/xlink">
    <defs></defs>
    <g id="Page-1" stroke="none" stroke-width="1" fill="none" fill-rule="evenodd">
        <g id="landing-img2">
            <g id="Group" transform="translate(331.000000, 1.000000)" stroke="#512DA8">
                <g>
                    <g transform="translate(0.000000, 54.000000)" id="Shape" stroke-width="2.126" fill="#B7BEC0">
                        <path d="M10.9,42.1 L17,35.9"></path>
                        <path d="M0.1,22.9 L8.5,20.6"></path>
                        <path d="M0.3,0.9 L8.8,3.2"></path>
                        <path d="M51.8,53.6 L49.5,45.1"></path>
                        <path d="M29.8,53.3 L32,44.9"></path>
                    </g>
                    <path d="M23.8,64.6 C18.6,70 18.7,78.5 24,83.8 L24,83.8 C29.4,89 37.9,88.9 43.2,83.6 L62.6,63.7 C67.8,58.3 67.7,49.8 62.4,44.5 L62.4,44.5 C57,39.3 48.5,39.4 43.2,44.7 L23.8,64.6 L23.8,64.6 Z" id="Shape" stroke-width="2.126" fill="#F1C883"></path>
                    <g transform="translate(3.000000, 0.000000)" fill="#EC847D">
                        <rect id="Rectangle-path" stroke-width="2.12597963" transform="translate(89.261490, 15.861120) rotate(-44.991897) translate(-89.261490, -15.861120) " x="82.161558" y="0.711265138" width="14.199864" height="30.2997097"></rect>
                        <rect id="Rectangle-path" stroke-width="2.12597961" transform="translate(68.286445, 36.674485) rotate(-45.000000) translate(-68.286445, -36.674485) " x="41.5867011" y="17.2246715" width="53.3994879" height="38.8996269"></rect>
                        <path d="M0.4,42.1 L55.2,22.6 L82.1,49.5 L62.2,103.9 L0.4,42.1 Z" id="Shape" stroke-width="2.126"></path>
                    </g>
                </g>
                <path d="M139.2,233.4 L127.5,233.4 L127.5,195.9 L185.7,102.6 L91.8,46.3 L98.8,36.9 L202.3,97.4 L139.2,200.8 L139.2,233.4 Z" id="Shape" stroke-width="2.126" fill="#EC847D"></path>
                <g transform="translate(81.000000, 230.000000)" id="Shape" stroke-width="2.126">
                    <path d="M0.1,10.3 L41.3,0 L61.2,0 L102.4,10.3" fill="#EC847D"></path>
                    <path d="M60.4,10.3 L31.8,10.3 L0.1,10.3 L0.1,19 L102.4,19 L102.4,10.3 L78.6,10.3" fill="#EC847D"></path>
                    <path d="M65.8,10.3 L74.2,10.3" fill="#B7BEC0"></path>
                </g>
                <g transform="translate(180.000000, 91.000000)" id="Oval" stroke-width="2.126">
                    <circle fill="#EC847D" cx="12.3" cy="12.5" r="12.1"></circle>
                    <circle fill="#B7BEC0" cx="12.3" cy="12.5" r="4.3"></circle>
                </g>
                <g transform="translate(84.000000, 29.000000)" id="Oval" stroke-width="2.126">
                    <circle fill="#EC847D" cx="12.1" cy="13" r="12.1"></circle>
                    <circle fill="#B7BEC0" cx="12.1" cy="13" r="4.3"></circle>
                </g>
                <circle id="Oval" stroke-width="2.126" fill="#EC847D" cx="132.3" cy="198.3" r="12.1"></circle>
                <circle id="Oval" stroke-width="2.126" fill="#B7BEC0" cx="132.3" cy="198.3" r="4.3"></circle>
                <path d="M79.1,43.5 L61.1,84.1" id="Shape" stroke-width="2.126" fill="#68C49F"></path>
            </g>
            <g id="Group" transform="translate(49.000000, 33.000000)">
                <g stroke="#512DA8" stroke-width="2.126">
                    <path d="M252.5,154.6 L252.5,6.9 C252.5,3.1 249.4,0 245.6,0 L6.9,0 C3.1,0 0,3.1 0,6.9 L0,154.6 L252.5,154.6 L252.5,154.6 Z" id="Shape" fill="#B7BEC0"></path>
                    <rect id="Rectangle-path" fill="#B2B4DB" x="11.8" y="12" width="228.8" height="130.4"></rect>
                    <path d="M0,154.5 L0,175.8 C0,179.9 4.2,184.4 8.3,184.4 L246,184.4 C250.1,184.4 252.5,180.2 252.5,176.1 L252.5,154.4 L0,154.4 L0,154.5 Z" id="Shape" fill="#FFFFFF"></path>
                    <path d="M165.9,217.5 C163.7,216.5 160.9,215.3 159.4,214.4 C156.6,212.8 156.1,212.7 155,207.4 C153.9,201.6 154.8,189.9 154.4,184.6 L98.4,184.6 C98,189.9 98.9,201.7 97.8,207.4 C96.8,212.7 96,212.8 93.2,214.4 C91.6,215.3 89,216.5 86.7,217.4 L86.7,217.4" id="Shape" fill="#E5E8EC"></path>
                    <path d="M79.5,217.5 L172.9,217.5" id="Shape"></path>
                </g>
                <circle id="Oval" fill="#B7BEC0" cx="122.9" cy="169.4" r="6.3"></circle>
            </g>
            <path d="M32.6,250.5 L440.8,250.5" id="Shape" stroke="#512DA8" stroke-width="2.126" fill="#FFFFFF"></path>
            <g id="Group" transform="translate(28.000000, 158.000000)" stroke="#512DA8" stroke-width="2.126">
                <path d="M47.2,89.8 C47.2,91.4 45.9,92.7 44.3,92.7 L3.4,92.7 C1.8,92.7 0.5,91.4 0.5,89.8 L0.5,3.6 C0.5,2 1.8,0.7 3.4,0.7 L44.3,0.7 C45.9,0.7 47.2,2 47.2,3.6 L47.2,89.8 L47.2,89.8 Z" id="Shape" fill="#F7F8FC"></path>
                <rect id="Rectangle-path" fill="#B2B4DB" x="0.5" y="13.1" width="46.7" height="66.4"></rect>
                <path d="M16,6.8 L31.6,6.8" id="Shape"></path>
                <path d="M22.4,85.1 L25.3,85.1" id="Shape"></path>
            </g>
            <g id="Group" transform="translate(220.000000, 132.000000)" stroke="#512DA8" stroke-width="2.126">
                <path d="M22.2,107.8 L22.2,7.7 C22.2,3.6 25.6,0.2 29.7,0.2 L176.8,0.2 C180.9,0.2 184.3,3.6 184.3,7.7 L184.3,107.8" id="Shape" fill="#B7BEC0"></path>
                <rect id="Rectangle-path" fill="#B2B4DB" x="30.2" y="8.3" width="146.1" height="92.5"></rect>
                <path d="M205.8,113.2 L205.8,107.3 L120.6,107.3 L119.5,107.3 C118.7,110.1 116.1,110 113.1,110 L93.6,110 C90.5,110 88,110.1 87.2,107.3 L86,107.3 L0.8,107.3 L0.8,113.2 C0.8,113.2 7.9,118.5 13.1,118.5 L78.3,118.5 L128.3,118.5 L193.5,118.5 C198.7,118.5 205.8,113.2 205.8,113.2 L205.8,113.2 Z" id="Shape" fill="#FFFFFF"></path>
            </g>
            <g id="Group" transform="translate(34.000000, 179.000000)">
                <rect id="Rectangle-path" stroke="#512DA8" stroke-width="1.7008" fill="#FFFFFF" x="0.2" y="0.4" width="33.2" height="58.1"></rect>
                <rect id="Rectangle-path" stroke="#512DA8" stroke-width="1.7008" fill="#B7BEC0" x="0.2" y="0.4" width="33.2" height="10.2"></rect>
                <path d="M3.4,5.6 L14.4,5.6" id="Shape" stroke="#512DA8" stroke-width="1.7008" fill="#FFFFFF"></path>
                <path d="M6.4,19.4 L22.4,19.4" id="Shape" stroke="#512DA8" stroke-width="1.7008" fill="#FFFFFF"></path>
                <path d="M6.4,23.4 L26.8,23.4" id="Shape" stroke="#512DA8" stroke-width="1.7008" fill="#FFFFFF"></path>
                <path d="M6.4,48.5 L22.4,48.5" id="Shape" stroke="#512DA8" stroke-width="1.7008" fill="#FFFFFF"></path>
                <path d="M6.4,52.4 L26.8,52.4" id="Shape" stroke="#512DA8" stroke-width="1.7008" fill="#FFFFFF"></path>
                <path d="M28.9,5.6 L30.1,5.6" id="Shape" stroke="#512DA8" stroke-width="1.7008" fill="#FFFFFF"></path>
                <rect id="Rectangle-path" fill="#96C6E3" x="6.1" y="27.9" width="9.2" height="4.4"></rect>
                <circle id="Oval" fill="#B7BEC0" cx="19" cy="38.8" r="2.7"></circle>
                <circle id="Oval" fill="#B7BEC0" cx="26.8" cy="38.8" r="2.7"></circle>
            </g>
            <g id="Group" transform="translate(75.000000, 63.000000)">
                <rect id="Rectangle-path" stroke="#512DA8" stroke-width="1.7008" fill="#FFFFFF" x="0.2" y="0.6" width="46.1" height="80.9"></rect>
                <rect id="Rectangle-path" stroke="#512DA8" stroke-width="1.7008" fill="#B7BEC0" x="0.2" y="0.6" width="46.1" height="10.2"></rect>
                <path d="M7,5.8 L11.4,5.8" id="Shape" stroke="#512DA8" stroke-width="1.7008" fill="#FFFFFF"></path>
                <path d="M6.8,20.6 L24.1,20.6" id="Shape" stroke="#512DA8" stroke-width="1.7008" fill="#FFFFFF"></path>
                <path d="M6.8,24.5 L38.9,24.5" id="Shape" stroke="#512DA8" stroke-width="1.7008" fill="#FFFFFF"></path>
                <path d="M6.8,48.1 L24.1,48.1" id="Shape" stroke="#512DA8" stroke-width="1.7008" fill="#FFFFFF"></path>
                <path d="M6.8,52 L38.9,52" id="Shape" stroke="#512DA8" stroke-width="1.7008" fill="#FFFFFF"></path>
                <path d="M40.4,5.8 L42.2,5.8" id="Shape" stroke="#512DA8" stroke-width="1.7008" fill="#FFFFFF"></path>
                <path d="M6.5,71.8 L10.9,71.8" id="Shape" stroke="#512DA8" stroke-width="1.7008" fill="#FFFFFF"></path>
                <path d="M8.7,69.6 L8.7,74.1" id="Shape" stroke="#512DA8" stroke-width="1.7008" fill="#FFFFFF"></path>
                <rect id="Rectangle-path" fill="#96C6E3" x="6.8" y="29.4" width="9.2" height="4.4"></rect>
                <circle id="Oval" fill="#B7BEC0" cx="30.4" cy="41.5" r="2.7"></circle>
                <circle id="Oval" fill="#B7BEC0" cx="38.2" cy="41.5" r="2.7"></circle>
                <rect id="Rectangle-path" fill="#F1C883" x="6.8" y="56.2" width="9.2" height="4.4"></rect>
                <circle id="Oval" fill="#B7BEC0" cx="38.2" cy="68.3" r="2.7"></circle>
            </g>
            <g id="Group" transform="translate(129.000000, 63.000000)">
                <rect id="Rectangle-path" stroke="#512DA8" stroke-width="1.7008" fill="#FFFFFF" x="0.9" y="0.6" width="46.1" height="55.1"></rect>
                <rect id="Rectangle-path" stroke="#512DA8" stroke-width="1.7008" fill="#B7BEC0" x="0.9" y="0.6" width="46.1" height="10.2"></rect>
                <path d="M7.7,5.8 L12.1,5.8" id="Shape" stroke="#512DA8" stroke-width="1.7008" fill="#FFFFFF"></path>
                <path d="M7.7,47.8 L12.1,47.8" id="Shape" stroke="#512DA8" stroke-width="1.7008" fill="#FFFFFF"></path>
                <path d="M9.9,45.6 L9.9,50" id="Shape" stroke="#512DA8" stroke-width="1.7008" fill="#FFFFFF"></path>
                <path d="M7.5,20.6 L24.8,20.6" id="Shape" stroke="#512DA8" stroke-width="1.7008" fill="#FFFFFF"></path>
                <path d="M7.5,24.5 L39.6,24.5" id="Shape" stroke="#512DA8" stroke-width="1.7008" fill="#FFFFFF"></path>
                <path d="M41.1,5.8 L42.9,5.8" id="Shape" stroke="#512DA8" stroke-width="1.7008" fill="#FFFFFF"></path>
                <rect id="Rectangle-path" fill="#96C6E3" x="7.5" y="29.4" width="9.2" height="4.4"></rect>
                <rect id="Rectangle-path" fill="#68C49F" x="19" y="29.4" width="9.2" height="4.4"></rect>
                <circle id="Oval" fill="#B7BEC0" cx="31.1" cy="41.5" r="2.7"></circle>
                <circle id="Oval" fill="#B7BEC0" cx="38.9" cy="41.5" r="2.7"></circle>
            </g>
            <g id="Group" transform="translate(184.000000, 63.000000)">
                <rect id="Rectangle-path" stroke="#512DA8" stroke-width="1.7008" fill="#FFFFFF" x="0.6" y="0.6" width="46.1" height="42.1"></rect>
                <rect id="Rectangle-path" stroke="#512DA8" stroke-width="1.7008" fill="#B7BEC0" x="0.6" y="0.6" width="46.1" height="10.2"></rect>
                <path d="M7.4,5.8 L11.8,5.8" id="Shape" stroke="#512DA8" stroke-width="1.7008" fill="#FFFFFF"></path>
                <path d="M7.4,34.8 L11.8,34.8" id="Shape" stroke="#512DA8" stroke-width="1.7008" fill="#FFFFFF"></path>
                <path d="M9.6,32.6 L9.6,37" id="Shape" stroke="#512DA8" stroke-width="1.7008" fill="#FFFFFF"></path>
                <path d="M7.2,20.6 L39.3,20.6" id="Shape" stroke="#512DA8" stroke-width="1.7008" fill="#FFFFFF"></path>
                <path d="M40.7,5.8 L42.5,5.8" id="Shape" stroke="#512DA8" stroke-width="1.7008" fill="#FFFFFF"></path>
                <rect id="Rectangle-path" fill="#B2B4DB" x="7.2" y="24.5" width="9.2" height="4.4"></rect>
            </g>
            <g id="Group" transform="translate(261.000000, 159.000000)">
                <rect id="Rectangle-path" stroke="#512DA8" stroke-width="1.7008" fill="#FFFFFF" x="0.2" y="0" width="37.1" height="65.2"></rect>
                <rect id="Rectangle-path" stroke="#512DA8" stroke-width="1.7008" fill="#B7BEC0" x="0.2" y="0" width="37.1" height="8.2"></rect>
                <path d="M5.6,4.2 L9.2,4.2" id="Shape" stroke="#512DA8" stroke-width="1.7008" fill="#FFFFFF"></path>
                <path d="M5.5,16.1 L19.4,16.1" id="Shape" stroke="#512DA8" stroke-width="1.7008" fill="#FFFFFF"></path>
                <path d="M5.5,19.3 L31.4,19.3" id="Shape" stroke="#512DA8" stroke-width="1.7008" fill="#FFFFFF"></path>
                <path d="M5.5,38.2 L19.4,38.2" id="Shape" stroke="#512DA8" stroke-width="1.7008" fill="#FFFFFF"></path>
                <path d="M5.5,41.4 L31.4,41.4" id="Shape" stroke="#512DA8" stroke-width="1.7008" fill="#FFFFFF"></path>
                <path d="M32.5,4.2 L34,4.2" id="Shape" stroke="#512DA8" stroke-width="1.7008" fill="#FFFFFF"></path>
                <path d="M5.2,57.4 L8.8,57.4" id="Shape" stroke="#512DA8" stroke-width="1.7008" fill="#FFFFFF"></path>
                <path d="M7,55.6 L7,59.2" id="Shape" stroke="#512DA8" stroke-width="1.7008" fill="#FFFFFF"></path>
                <rect id="Rectangle-path" fill="#96C6E3" x="5.5" y="23.2" width="7.4" height="3.6"></rect>
                <circle id="Oval" fill="#B7BEC0" cx="24.5" cy="32.9" r="2.2"></circle>
                <circle id="Oval" fill="#B7BEC0" cx="30.8" cy="32.9" r="2.2"></circle>
                <rect id="Rectangle-path" fill="#F1C883" x="5.5" y="44.8" width="7.4" height="3.6"></rect>
                <circle id="Oval" fill="#B7BEC0" cx="30.8" cy="54.5" r="2.2"></circle>
            </g>
            <g id="Group" transform="translate(305.000000, 159.000000)">
                <rect id="Rectangle-path" stroke="#512DA8" stroke-width="1.7008" fill="#FFFFFF" x="0.2" y="0" width="37.1" height="44.4"></rect>
                <rect id="Rectangle-path" stroke="#512DA8" stroke-width="1.7008" fill="#B7BEC0" x="0.2" y="0" width="37.1" height="8.2"></rect>
                <path d="M5.7,4.2 L9.2,4.2" id="Shape" stroke="#512DA8" stroke-width="1.7008" fill="#FFFFFF"></path>
                <path d="M5.7,38 L9.2,38" id="Shape" stroke="#512DA8" stroke-width="1.7008" fill="#FFFFFF"></path>
                <path d="M7.5,36.2 L7.5,39.8" id="Shape" stroke="#512DA8" stroke-width="1.7008" fill="#FFFFFF"></path>
                <path d="M5.5,16.1 L19.4,16.1" id="Shape" stroke="#512DA8" stroke-width="1.7008" fill="#FFFFFF"></path>
                <path d="M5.5,19.3 L31.4,19.3" id="Shape" stroke="#512DA8" stroke-width="1.7008" fill="#FFFFFF"></path>
                <path d="M32.6,4.2 L34,4.2" id="Shape" stroke="#512DA8" stroke-width="1.7008" fill="#FFFFFF"></path>
                <rect id="Rectangle-path" fill="#96C6E3" x="5.5" y="23.2" width="7.4" height="3.6"></rect>
                <rect id="Rectangle-path" fill="#68C49F" x="14.8" y="23.2" width="7.4" height="3.6"></rect>
                <circle id="Oval" fill="#B7BEC0" cx="24.5" cy="32.9" r="2.2"></circle>
                <circle id="Oval" fill="#B7BEC0" cx="30.8" cy="32.9" r="2.2"></circle>
            </g>
            <g id="Group" transform="translate(349.000000, 159.000000)">
                <rect id="Rectangle-path" stroke="#512DA8" stroke-width="1.7008" fill="#FFFFFF" x="0.2" y="0" width="37.1" height="33.9"></rect>
                <rect id="Rectangle-path" stroke="#512DA8" stroke-width="1.7008" fill="#B7BEC0" x="0.2" y="0" width="37.1" height="8.2"></rect>
                <path d="M5.7,4.2 L9.3,4.2" id="Shape" stroke="#512DA8" stroke-width="1.7008" fill="#FFFFFF"></path>
                <path d="M5.7,27.5 L9.3,27.5" id="Shape" stroke="#512DA8" stroke-width="1.7008" fill="#FFFFFF"></path>
                <path d="M7.5,25.8 L7.5,29.3" id="Shape" stroke="#512DA8" stroke-width="1.7008" fill="#FFFFFF"></path>
                <path d="M5.6,16.1 L31.4,16.1" id="Shape" stroke="#512DA8" stroke-width="1.7008" fill="#FFFFFF"></path>
                <path d="M32.6,4.2 L34,4.2" id="Shape" stroke="#512DA8" stroke-width="1.7008" fill="#FFFFFF"></path>
                <rect id="Rectangle-path" fill="#B2B4DB" x="5.6" y="19.3" width="7.4" height="3.6"></rect>
            </g>
            <g id="Group" transform="translate(79.000000, 13.000000)" stroke="#512DA8" stroke-width="2.126">
                <circle id="Oval" fill="#C0D44C" cx="18.9" cy="18.8" r="18.1"></circle>
                <path d="M26.4,11.5 L15.9,24.2 L11.2,19.3" id="Shape"></path>
            </g>
            <g id="Group" transform="translate(1.000000, 174.000000)" stroke="#512DA8" stroke-width="2.126">
                <circle id="Oval" fill="#C0D44C" cx="18.1" cy="18.3" r="18.1"></circle>
                <path d="M25.7,11 L15.2,23.8 L10.5,18.8" id="Shape"></path>
            </g>
            <g id="Group" transform="translate(323.000000, 110.000000)" stroke="#512DA8" stroke-width="2.126">
                <circle id="Oval" fill="#C0D44C" cx="18.9" cy="18.5" r="18.1"></circle>
                <path d="M26.4,11.2 L15.9,23.9 L11.2,19" id="Shape"></path>
            </g>
        </g>
    </g>
</svg>