<?xml version="1.0" encoding="UTF-8" standalone="no"?>
<svg width="571px" height="284px" viewBox="0 0 571 284" version="1.1" xmlns="http://www.w3.org/2000/svg" xmlns:xlink="http://www.w3.org/1999/xlink">
    <defs></defs>
    <g id="Page-1" stroke="none" stroke-width="1" fill="none" fill-rule="evenodd">
        <g id="landing-img1">
            <g id="Group" transform="translate(364.000000, 7.000000)">
                <path d="M68.5,0.4 L12.5,0.4 C5.9,0.4 0.5,5.8 0.5,12.4 L0.5,36.4 C0.5,43 5.9,48.4 12.5,48.4 L16.5,48.4 L16.5,64.4 L30.3,48.4 L68.5,48.4 C75.1,48.4 80.5,43 80.5,36.4 L80.5,12.4 C80.5,5.8 75.1,0.4 68.5,0.4 L68.5,0.4 Z" id="Shape" stroke="#512DA8" stroke-width="2.126" fill="#FFFFFF"></path>
                <g transform="translate(28.000000, 12.000000)">
                    <circle id="Oval" stroke="#512DA8" stroke-width="2.126" fill="#B2B4DB" cx="4.6" cy="12.2" r="4.1"></circle>
                    <circle id="Oval" stroke="#512DA8" stroke-width="2.126" fill="#99CCCC" cx="20.5" cy="4.4" r="4.1"></circle>
                    <circle id="Oval" stroke="#512DA8" stroke-width="2.126" fill="#EC847D" cx="20.5" cy="20.4" r="4.1"></circle>
                    <rect id="Rectangle-path" fill="#3B4092" transform="translate(12.021670, 17.153230) rotate(-66.026457) translate(-12.021670, -17.153230) " x="11.0217063" y="12.1534116" width="1.99992738" height="9.99963689"></rect>
                    <rect id="Rectangle-path" fill="#3B4092" transform="translate(12.099690, 7.394450) rotate(-23.973543) translate(-12.099690, -7.394450) " x="7.09987155" y="6.39448631" width="9.99963689" height="1.99992738"></rect>
                </g>
            </g>
            <rect id="Rectangle-path" stroke="#512DA8" stroke-width="2.126" fill="#68C49F" x="448.3" y="113.7" width="29.1" height="169.4"></rect>
            <rect id="Rectangle-path" stroke="#512DA8" stroke-width="2.126" fill="#FFFFFF" x="448.3" y="128.8" width="29.1" height="23.2"></rect>
            <rect id="Rectangle-path" stroke="#512DA8" stroke-width="2.126" fill="#68C49F" x="448.3" y="229.5" width="29.1" height="6.2"></rect>
            <rect id="Rectangle-path" stroke="#512DA8" stroke-width="2.126" fill="#68C49F" x="448.3" y="239.5" width="29.1" height="6.2"></rect>
            <rect id="Rectangle-path" stroke="#512DA8" stroke-width="2.126" fill="#68C49F" x="448.3" y="249.5" width="29.1" height="6.2"></rect>
            <rect id="Rectangle-path" stroke="#512DA8" stroke-width="2.126" fill="#FFFFFF" x="477.4" y="122.1" width="31.1" height="161.1"></rect>
            <path d="M492.9,160.2 L492.9,175.7" id="Shape" stroke="#512DA8" stroke-width="2.126"></path>
            <path d="M492.9,181.9 L492.9,263.6" id="Shape" stroke="#512DA8" stroke-width="2.126"></path>
            <rect id="Rectangle-path" stroke="#512DA8" stroke-width="2.126" x="487.5" y="134.2" width="10.8" height="10.8"></rect>
            <rect id="Rectangle-path" stroke="#512DA8" stroke-width="2.12604117" fill="#CDD5D7" transform="translate(549.849815, 205.680530) rotate(-6.130763) translate(-549.849815, -205.680530) " x="536.899564" y="129.979064" width="25.9005015" height="151.402932"></rect>
            <rect id="Rectangle-path" stroke="#512DA8" stroke-width="2.12601847" fill="#88D8FB" transform="translate(555.104780, 254.502780) rotate(-6.125066) translate(-555.104780, -254.502780) " x="542.104667" y="242.902679" width="26.0002259" height="23.2002016"></rect>
            <path d="M544.6,156.3 L552.5,230.1" id="Shape" stroke="#512DA8" stroke-width="2.126" fill="#FFDC69"></path>
            <rect id="Rectangle-path" stroke="#512DA8" stroke-width="2.126" fill="#FFFFFF" x="508.4" y="146.5" width="19.1" height="136.6"></rect>
            <rect id="Rectangle-path" stroke="#512DA8" stroke-width="2.126" fill="#E5E8EC" x="508.4" y="161.5" width="19.1" height="106.5"></rect>
            <g id="Group" transform="translate(142.000000, 98.000000)" stroke="#512DA8" stroke-width="2.126">
                <path d="M33.9,168.5 L33.9,12.3 C33.9,5.8 39.1,0.6 45.6,0.6 L275,0.6 C281.5,0.6 286.7,5.9 286.7,12.3 L286.7,168.5" id="Shape" fill="#B7BEC0"></path>
                <rect id="Rectangle-path" fill="#B2B4DB" x="46.4" y="13.3" width="227.9" height="144.2"></rect>
                <path d="M320.2,176.9 L320.2,167.8 L187.3,167.8 L185.6,167.8 C184.3,172.2 180.4,172.1 175.6,172.1 L145.2,172.1 C140.4,172.1 136.4,172.2 135.2,167.8 L133.5,167.8 L0.5,167.8 L0.5,176.9 C0.5,176.9 11.5,185.1 19.7,185.1 L121.4,185.1 L199.3,185.1 L301,185.1 C309.1,185.1 320.2,176.9 320.2,176.9 L320.2,176.9 Z" id="Shape" fill="#FFFFFF"></path>
            </g>
            <g id="Group" transform="translate(257.000000, 129.000000)" stroke="#FFFFFF" stroke-width="2.126">
                <path d="M93.4,57 C93.4,61.9 89.4,65.9 84.5,65.9 L84.5,65.9 C79.6,65.9 75.6,61.9 75.6,57 L75.6,3.1" id="Shape"></path>
                <path d="M50.8,97.4 L50.8,97.4 C59.6,97.4 66.7,90.3 66.7,81.5 L66.7,14.8" id="Shape"></path>
                <path d="M34.4,79.3 C32.8,79.6 31.1,79.7 29.4,79.7 L29.4,79.7 C13.4,79.7 0.5,66.7 0.5,50.8" id="Shape"></path>
                <path d="M58.4,0 L58.4,50.8 C58.4,58.7 55.2,65.9 50.1,71.1" id="Shape"></path>
                <path d="M23.2,69.3 C33.5,69.3 41.9,60.9 41.9,50.6 C41.9,40.3 33.5,31.9 23.2,31.9 C12.9,31.9 4.5,40.3 4.5,50.6" id="Shape"></path>
                <path d="M31.2,42.6 C26.8,38.1 19.5,38.1 15.1,42.6 C10.7,47 10.7,54.3 15.1,58.7 C19.5,63.1 26.8,63.1 31.2,58.7" id="Shape"></path>
                <path d="M85.1,80.5 C86.7,93.5 98.5,102.6 111.5,101 C124.5,99.4 133.6,87.6 132,74.6 C130.4,61.6 118.6,52.5 105.6,54.1" id="Shape"></path>
                <path d="M91.8,79.7 C93,89 101.4,95.5 110.7,94.4 C120,93.2 126.5,84.8 125.4,75.5" id="Shape"></path>
                <path d="M70.9,64.6 C74.7,72.1 83.9,75.1 91.4,71.2 C98.9,67.4 101.9,58.2 98,50.7 C95.1,45.1 89.3,42 83.4,42.4" id="Shape"></path>
                <path d="M62.8,77.9 C57.2,70.3 46.5,68.7 38.9,74.3 C31.3,79.9 29.7,90.6 35.3,98.2 C40.9,105.8 51.6,107.4 59.2,101.8" id="Shape"></path>
            </g>
            <g id="Group" transform="translate(275.000000, 1.000000)">
                <path d="M36.7,158.7 L36.5,157.2 C36.3,155.9 36.3,154.5 36.3,153.2 C36.3,141.8 42,132.8 49.3,132.8 C56.6,132.8 62.3,141.8 62.3,153.2 C62.3,154.5 62.2,155.9 62.1,157.2 L61.9,158.7 L36.7,158.7 L36.7,158.7 Z" id="Shape" stroke="#512DA8" stroke-width="2.126" fill="#B7BEC0"></path>
                <g transform="translate(0.000000, 69.000000)" id="Shape" stroke="#512DA8" stroke-width="2.126" fill="#FFFFFF">
                    <path d="M1,76.1 L0.9,74.3 C0.6,70.7 -2.18713936e-14,58.8 3.8,55.4 C4.3,54.9 5.5,53.8 5.5,53.8 L5.7,53.7 C23.5,43.1 33.7,26.3 34.7,6.3 C34.7,6.2 34.7,6 34.6,5.9 L34.6,5.7 C34.6,5.7 34.7,5.1 34.7,4.9 L34.7,3.5 C34.7,1.8 35.4,0.9 36.7,0.9 C36.8,0.9 38.7,0.9 38.7,3.1 L38.7,3.6 L38.9,3.6 L38.9,76 L1,76 L1,76.1 Z"></path>
                    <path d="M59.7,76.1 L59.7,3.7 L59.9,3.7 L59.9,3.2 C59.9,1 61.8,1 61.9,1 C63.2,1 63.9,1.9 63.9,3.6 L63.9,5 C63.9,5.2 64,5.8 64,5.8 L64,6 C64,6.2 64,6.3 63.9,6.4 C64.9,26.4 75.1,43.2 92.9,53.8 L93.1,53.9 L94.8,55.5 C98.5,58.9 97.9,70.8 97.7,74.4 L97.6,76.2 L59.7,76.2 L59.7,76.1 Z"></path>
                </g>
                <g transform="translate(34.000000, 0.000000)" id="Shape" stroke="#512DA8" stroke-width="2.126" fill="#FFFFFF">
                    <path d="M0,145.1 L0,39.8 C0,32 5.8,5.5 14.3,0.8 L15.3,0.3 L16.3,0.8 C24.9,5.5 30.6,32.1 30.6,39.8 L30.6,145.1 L0,145.1 L0,145.1 Z"></path>
                    <path d="M3.1,22 L3.9,19.4 C6,12.4 9.6,3.5 14.4,0.8 L15.4,0.3 L16.4,0.8 C21.2,3.5 24.7,12.4 26.9,19.4 L27.7,22 L3.1,22 L3.1,22 Z"></path>
                </g>
                <g transform="translate(10.000000, 126.000000)" id="Shape" stroke="#512DA8" stroke-width="2.126" fill="#FFFFFF">
                    <path d="M0.4,25.4 L0.3,23.5 C0.2,22.3 0.2,21 0.2,19.8 C0.2,10.3 2.7,0.2 8,0.2 C13.4,0.2 15.8,10.4 15.8,19.8 C15.8,21.1 15.8,22.4 15.7,23.5 L15.6,25.4 L0.4,25.4 L0.4,25.4 Z"></path>
                    <path d="M63.1,25.7 L63,23.8 C62.9,22.5 62.9,21.3 62.9,20.1 C62.9,10.6 65.4,0.5 70.7,0.5 C76.1,0.5 78.5,10.7 78.5,20.1 C78.5,21.4 78.5,22.7 78.4,23.8 L78.3,25.7 L63.1,25.7 L63.1,25.7 Z"></path>
                </g>
                <rect id="Rectangle-path" fill="#EC847D" x="35.1" y="53.4" width="28.4" height="5.9"></rect>
                <rect id="Rectangle-path" fill="#EC847D" x="35.1" y="64.6" width="28.4" height="5.9"></rect>
            </g>
            <g id="Group" transform="translate(134.000000, 54.000000)">
                <path d="M107.7,146.6 L107.7,68 L107.7,28.6 L79.5,0.4 L0.8,0.4 L0.8,29.6 L0.8,68 L0.8,146.6 L107.7,146.6 Z" id="Shape" stroke="#512DA8" stroke-width="2.126" fill="#FFFFFF"></path>
                <path d="M79.5,28.6 L107.7,28.6 L79.5,0.4 L79.5,28.6 Z" id="Shape" stroke="#512DA8" stroke-width="2.126" fill="#B7BEC0"></path>
                <path d="M32.6,47.3 L93.8,47.3" id="Shape" stroke="#512DA8" stroke-width="2.126" fill="#FFFFFF"></path>
                <path d="M32.6,57.4 L80.6,57.4" id="Shape" stroke="#512DA8" stroke-width="2.126" fill="#FFFFFF"></path>
                <rect id="Rectangle-path" fill="#C0D44C" x="15.3" y="47.3" width="10.1" height="10.1"></rect>
                <path d="M32.6,73 L93.8,73" id="Shape" stroke="#512DA8" stroke-width="2.126" fill="#FFFFFF"></path>
                <path d="M32.6,83.1 L80.6,83.1" id="Shape" stroke="#512DA8" stroke-width="2.126" fill="#FFFFFF"></path>
                <rect id="Rectangle-path" fill="#C0D44C" x="15.3" y="73" width="10.1" height="10.1"></rect>
                <path d="M32.6,98.6 L93.8,98.6" id="Shape" stroke="#512DA8" stroke-width="2.126" fill="#FFFFFF"></path>
                <path d="M32.6,108.7 L80.6,108.7" id="Shape" stroke="#512DA8" stroke-width="2.126" fill="#FFFFFF"></path>
                <rect id="Rectangle-path" stroke="#512DA8" stroke-width="2.126" fill="#FFFFFF" x="15.3" y="98.6" width="10.1" height="10.1"></rect>
                <rect id="Rectangle-path" stroke="#512DA8" stroke-width="2.126" fill="#FFFFFF" x="15.3" y="17.1" width="43" height="10.1"></rect>
                <path d="M27.2,44.1 L19.3,54 L15.7,50.6" id="Shape" stroke="#512DA8" stroke-width="2.126"></path>
                <path d="M27.2,70.1 L19.3,80 L15.7,76.7" id="Shape" stroke="#512DA8" stroke-width="2.126"></path>
            </g>
            <g id="Group" transform="translate(1.000000, 85.000000)">
                <circle id="Oval" fill="#C3E8FA" cx="59.5" cy="59.1" r="42"></circle>
                <g transform="translate(0.000000, 52.000000)" id="Shape" stroke="#512DA8" stroke-width="2.126">
                    <g transform="translate(93.000000, 0.000000)">
                        <path d="M19,13.5 L25.4,7.1 L19,0.7"></path>
                        <path d="M23.7,7.1 L0.5,7.1"></path>
                    </g>
                    <g>
                        <path d="M7,0.7 L0.6,7.1 L7,13.5"></path>
                        <path d="M2.3,7.1 L25.5,7.1"></path>
                    </g>
                </g>
                <g transform="translate(53.000000, 0.000000)" id="Shape" stroke="#512DA8" stroke-width="2.126">
                    <path d="M12.9,6.6 L6.5,0.2 L0.1,6.6"></path>
                    <path d="M6.5,1.9 L6.5,25.1"></path>
                </g>
                <g transform="translate(17.000000, 17.000000)" id="Shape" stroke="#512DA8" stroke-width="2.126">
                    <g transform="translate(66.000000, 0.000000)">
                        <path d="M18.2,9.5 L18.2,0.5 L9.1,0.5"></path>
                        <path d="M16.9,1.7 L0.5,18.1"></path>
                    </g>
                    <g transform="translate(0.000000, 66.000000)">
                        <path d="M0.8,8.7 L0.9,17.8 L9.9,17.8"></path>
                        <path d="M2.1,16.6 L18.5,0.2"></path>
                    </g>
                </g>
                <g transform="translate(17.000000, 17.000000)" id="Shape" stroke="#512DA8" stroke-width="2.126">
                    <g transform="translate(66.000000, 66.000000)">
                        <path d="M9.1,17.8 L18.2,17.8 L18.2,8.7"></path>
                        <path d="M16.9,16.6 L0.5,0.2"></path>
                    </g>
                    <g>
                        <path d="M9.9,0.5 L0.8,0.5 L0.8,9.5"></path>
                        <path d="M2.1,1.7 L18.5,18.1"></path>
                    </g>
                </g>
                <g transform="translate(34.000000, 34.000000)" id="Shape" stroke="#512DA8" stroke-width="2.126">
                    <path d="M0.2,25.9 C0.2,12 11.5,0.7 25.4,0.7 C39.3,0.7 50.6,12 50.6,25.9 C50.6,26.7 50,38.3 40.5,50.6 C37.7,54.3 38.2,61.7 38.2,61.7 L27.2,61.7 L23.6,61.7 L12.5,61.7 C12.5,61.7 13,54.3 10.3,50.6 C0.7,38.3 0.2,26.7 0.2,25.9 L0.2,25.9 Z" fill="#F1C883"></path>
                    <path d="M0.2,25.9 C0.2,12 11.5,0.7 25.4,0.7 C39.3,0.7 50.6,12 50.6,25.9 C50.6,26.7 50,38.3 40.5,50.6 C37.7,54.3 38.2,61.7 38.2,61.7 L27.2,61.7 L23.6,61.7 L12.5,61.7 C12.5,61.7 13,54.3 10.3,50.6 C0.7,38.3 0.2,26.7 0.2,25.9 L0.2,25.9 Z"></path>
                    <g transform="translate(14.000000, 32.000000)" fill="#41A9D8">
                        <path d="M5,29.5 L0.3,0.4"></path>
                        <path d="M17.7,29.5 L22.4,0.4"></path>
                    </g>
                    <path d="M14.6,33.6 L16.7,35.6 L18.9,33.6 L21.1,35.6 L23.3,33.6 L25.5,35.6 L27.6,33.6 L29.8,35.6 L32,33.6 L34.2,35.6 L36.4,33.6"></path>
                    <path d="M39.8,67.2 C39.8,66.2 39.1,65.4 38.2,65.2 C39.1,65 39.8,64.1 39.8,63.2 C39.8,62.1 38.9,61.1 37.8,61.1 L33.5,61.1 L17.2,61.1 L12.9,61.1 C11.8,61.1 10.9,62.1 10.9,63.2 C10.9,64.2 11.6,65 12.5,65.2 C11.6,65.5 10.9,66.3 10.9,67.2 C10.9,68.2 11.6,69 12.5,69.2 C11.6,69.5 10.9,70.3 10.9,71.2 C10.9,72.3 11.8,73.3 12.9,73.3 L12.9,73.5 C12.9,75.1 14.2,76.3 15.7,76.3 L20,76.3 L30.6,76.3 L34.9,76.3 C36.5,76.3 37.7,75 37.7,73.5 L37.7,73.3 C38.8,73.3 39.7,72.3 39.7,71.2 C39.7,70.2 39,69.4 38.1,69.2 C39.1,69 39.8,68.1 39.8,67.2 L39.8,67.2 Z" fill="#E5E8EC"></path>
                    <path d="M11.9,68.9 L31.4,68.9"></path>
                </g>
            </g>
            <g id="Group" transform="translate(61.000000, 201.000000)" stroke="#512DA8" stroke-width="2.126">
                <path d="M77.2,41.3 L85.8,32.8 L77.4,24.2" id="Shape"></path>
                <path d="M84.3,33 L9,32.8 C4.3,32.8 0.4,28.9 0.5,24.1 L0.5,24.1 C0.5,19.4 0.7,0.8 0.7,0.8" id="Shape"></path>
            </g>
        </g>
    </g>
</svg>