<?xml version="1.0" encoding="UTF-8" standalone="no"?>
<svg width="591px" height="294px" viewBox="0 0 591 294" version="1.1" xmlns="http://www.w3.org/2000/svg" xmlns:xlink="http://www.w3.org/1999/xlink">
    <defs></defs>
    <g id="Page-1" stroke="none" stroke-width="1" fill="none" fill-rule="evenodd">
        <g id="landing-img3">
            <g id="Group" transform="translate(253.000000, 131.000000)" stroke="#512DA8" stroke-width="2.126">
                <path d="M77.1,41.2 L85.7,32.8 L77.3,24.2" id="Shape"></path>
                <path d="M84.2,33 L8.9,32.8 C4.2,32.8 0.3,28.9 0.4,24.1 L0.4,24.1 C0.4,19.4 0.6,0.8 0.6,0.8" id="Shape"></path>
            </g>
            <g id="Group" transform="translate(42.000000, 79.000000)" stroke="#512DA8" stroke-width="2.126">
                <g>
                    <rect id="Rectangle-path" fill="#B2B4DB" x="0" y="13.2" width="237.8" height="171.2"></rect>
                    <rect id="Rectangle-path" fill="#FFFFFF" x="13.3" y="164.9" width="211.2" height="11.7"></rect>
                    <g transform="translate(13.000000, 0.000000)" id="Shape" fill="#FFFFFF">
                        <path d="M89,0 L0.3,0 L0.3,164.9 L89,164.9 C98.6,164.9 106.4,172.7 106.4,182.3 L106.4,17.4 C106.4,7.8 98.6,0 89,0 L89,0 Z"></path>
                        <path d="M122.8,0 L211.5,0 L211.5,164.9 L122.8,164.9 C113.2,164.9 105.4,172.7 105.4,182.3 L105.4,17.4 C105.4,7.8 113.2,0 122.8,0 L122.8,0 Z"></path>
                    </g>
                </g>
                <path d="M30.4,19.6 L72,19.6" id="Shape" fill="#B2B4DB"></path>
                <path d="M30.4,39.3 L100.5,39.3" id="Shape" fill="#B2B4DB"></path>
                <path d="M135.9,50.5 L205.9,50.5" id="Shape" fill="#B2B4DB"></path>
                <path d="M30.4,49.3 L100.5,49.3" id="Shape" fill="#B2B4DB"></path>
                <path d="M135.9,60.5 L205.9,60.5" id="Shape" fill="#B2B4DB"></path>
                <path d="M30.4,59.3 L100.5,59.3" id="Shape" fill="#B2B4DB"></path>
                <path d="M135.9,70.5 L205.9,70.5" id="Shape" fill="#B2B4DB"></path>
                <path d="M30.4,69.3 L100.5,69.3" id="Shape" fill="#B2B4DB"></path>
                <path d="M135.9,80.5 L205.9,80.5" id="Shape" fill="#B2B4DB"></path>
                <path d="M30.4,79.3 L100.5,79.3" id="Shape" fill="#B2B4DB"></path>
                <path d="M135.9,90.5 L205.9,90.5" id="Shape" fill="#B2B4DB"></path>
                <path d="M30.4,89.3 L100.5,89.3" id="Shape" fill="#B2B4DB"></path>
                <path d="M135.9,100.5 L205.9,100.5" id="Shape" fill="#B2B4DB"></path>
                <path d="M30.4,99.3 L100.5,99.3" id="Shape" fill="#B2B4DB"></path>
                <path d="M30.4,119.4 L100.5,119.4" id="Shape" fill="#B2B4DB"></path>
                <path d="M30.4,129.4 L100.5,129.4" id="Shape" fill="#B2B4DB"></path>
                <path d="M30.4,139.4 L70.4,139.4" id="Shape" fill="#B2B4DB"></path>
                <path d="M135.9,110.5 L155.9,110.5" id="Shape" fill="#B2B4DB"></path>
                <rect id="Rectangle-path" fill="#FFFFFF" x="140.1" y="19.5" width="62.4" height="15.1"></rect>
            </g>
            <g id="Group" transform="translate(220.000000, 209.000000)" stroke="#512DA8" stroke-width="2.126">
                <path d="M68.6,0.3 L68.6,24.9 L68.6,49.8 L50.7,67.7 L0.8,67.7 L0.8,49.2 L0.8,24.9 L0.8,0.3 L68.6,0.3 Z" id="Shape" fill="#FCBE0F"></path>
                <path d="M50.7,49.8 L68.6,49.8 L50.7,67.7 L50.7,49.8 Z" id="Shape" fill="#FCBE0F"></path>
                <path d="M15.9,39 L54.8,39" id="Shape"></path>
                <path d="M15.9,32.6 L46.4,32.6" id="Shape"></path>
                <path d="M15.9,22.8 L54.8,22.8" id="Shape"></path>
                <path d="M15.9,16.4 L46.4,16.4" id="Shape"></path>
            </g>
            <path d="M193.5,293.2 L184.5,287.7 L175.6,293.2 L175.6,249.7 L193.5,249.7 L193.5,293.2 Z" id="Shape" stroke="#512DA8" stroke-width="2.126" fill="#EC847D"></path>
            <g id="Group" transform="translate(141.000000, 39.000000)" stroke="#512DA8" stroke-width="2.126">
                <path d="M0.3,13.6 L0.3,13.6 L0.2,14.3 C5.8,14.7 10.2,17.1 11.2,20.1 C13.1,19.6 15.2,19.2 17.4,19 C19.6,18.8 21.7,18.8 23.6,18.9 C23.3,17.2 23.2,15.3 23.2,13.3 C23.2,11.3 23.4,9.4 23.6,7.7 C21.7,7.8 19.6,7.8 17.4,7.5 C15.2,7.3 13.1,6.9 11.2,6.4 C10.2,9.4 5.8,11.8 0.2,12.2 L0.2,12.9 L0.3,12.9" id="Shape" fill="#CDD5D7"></path>
                <path d="M100.1,18.1 C110.8,18.1 110.8,8.5 100.1,8.5 C82.1,8.2 41.6,8 23.6,7.8 L23.6,18.9 C41.8,18.6 82.3,18.4 100.1,18.1 L100.1,18.1 Z" id="Shape" fill="#B7BEC0"></path>
                <path d="M29.8,20.2 L29.8,6.5 L23.2,6.5 L23.1,20.2 L29.8,20.2 Z" id="Shape" fill="#B7BEC0"></path>
                <path d="M75.7,20.1 L126.5,20.1 C129.6,20.1 132.1,17.9 132.1,15.2 L132.1,11.8 C132.1,9.1 129.6,6.9 126.5,6.9 L75.7,6.9 L75.7,20.1 L75.7,20.1 Z" id="Shape" fill="#B7BEC0"></path>
                <path d="M82.9,0.5 L121.4,0.5 C121.4,0.5 125.7,0.6 125.7,2.9 L125.7,19.3" id="Shape"></path>
                <path d="M0.8,13.2 L15.2,13.1" id="Shape" fill="#B2B4DB"></path>
            </g>
            <g id="Group" transform="translate(42.000000, 1.000000)" stroke="#512DA8" stroke-width="2.126">
                <path d="M85.6,0.4 L0,0.4 L0,51.1 L53.5,51.1 L69.6,67.2 L69.6,51.1 L85.6,51.1 L85.6,0.4 Z" id="Shape" fill="#68C49F"></path>
                <g transform="translate(15.000000, 19.000000)" id="Shape" fill="#B2B4DB">
                    <path d="M0.5,0.9 L55.1,0.9"></path>
                    <path d="M0.5,12.8 L55.1,12.8"></path>
                </g>
            </g>
            <g id="Group" transform="translate(355.000000, 67.000000)">
                <g>
                    <rect id="Rectangle-path" stroke="#512DA8" stroke-width="2.126" fill="#FFFFFF" x="0.1" y="0.9" width="235.8" height="190.3"></rect>
                    <rect id="Rectangle-path" stroke="#512DA8" stroke-width="2.126" fill="#B7BEC0" x="0.1" y="0.9" width="235.8" height="22.7"></rect>
                    <path d="M219.9,8.3 L227.3,8.3" id="Shape" stroke="#512DA8" stroke-width="2.126" fill="#B2B4DB"></path>
                    <path d="M219.9,12.3 L227.3,12.3" id="Shape" stroke="#512DA8" stroke-width="2.126" fill="#B2B4DB"></path>
                    <path d="M219.9,16.3 L227.3,16.3" id="Shape" stroke="#512DA8" stroke-width="2.126" fill="#B2B4DB"></path>
                    <path d="M16.2,12.3 C16.2,13.7 15.1,14.8 13.7,14.8 L13.7,14.8 C12.3,14.8 11.2,13.7 11.2,12.3 L11.2,12.3 C11.2,10.9 12.3,9.8 13.7,9.8 L13.7,9.8 C15.1,9.7 16.2,10.9 16.2,12.3 L16.2,12.3 L16.2,12.3 Z" id="Shape" fill="#3B4092"></path>
                    <path d="M26.2,12.3 C26.2,13.7 25.1,14.8 23.7,14.8 L23.7,14.8 C22.3,14.8 21.2,13.7 21.2,12.3 L21.2,12.3 C21.2,10.9 22.3,9.8 23.7,9.8 L23.7,9.8 C25.1,9.7 26.2,10.9 26.2,12.3 L26.2,12.3 L26.2,12.3 Z" id="Shape" fill="#3B4092"></path>
                    <path d="M36.2,12.3 C36.2,13.7 35.1,14.8 33.7,14.8 L33.7,14.8 C32.3,14.8 31.2,13.7 31.2,12.3 L31.2,12.3 C31.2,10.9 32.3,9.8 33.7,9.8 L33.7,9.8 C35.1,9.7 36.2,10.9 36.2,12.3 L36.2,12.3 L36.2,12.3 Z" id="Shape" fill="#3B4092"></path>
                </g>
                <g transform="translate(28.000000, 55.000000)" stroke="#512DA8" stroke-width="2.126">
                    <circle id="Oval" fill="#68C49F" cx="13.5" cy="14.2" r="13.5"></circle>
                    <path d="M19.1,8.7 L11.3,18.2 L7.7,14.5" id="Shape"></path>
                </g>
                <g transform="translate(28.000000, 95.000000)" stroke="#512DA8" stroke-width="2.126">
                    <circle id="Oval" fill="#FCBE0F" cx="13.5" cy="13.7" r="13.5"></circle>
                    <path d="M19.1,8.2 L11.3,17.7 L7.7,14" id="Shape"></path>
                </g>
                <g transform="translate(28.000000, 134.000000)" stroke="#512DA8" stroke-width="2.126">
                    <circle id="Oval" fill="#8DC2D5" cx="13.5" cy="14.2" r="13.5"></circle>
                    <path d="M19.1,8.7 L11.3,18.2 L7.7,14.5" id="Shape"></path>
                </g>
                <path d="M67,58.5 L199.4,58.5" id="Shape" stroke="#512DA8" stroke-width="2.126" fill="#B2B4DB"></path>
                <path d="M67,68.5 L199.4,68.5" id="Shape" stroke="#512DA8" stroke-width="2.126" fill="#B2B4DB"></path>
                <path d="M67,78.5 L122.1,78.5" id="Shape" stroke="#512DA8" stroke-width="2.126" fill="#B2B4DB"></path>
                <path d="M67,98 L199.4,98" id="Shape" stroke="#512DA8" stroke-width="2.126" fill="#B2B4DB"></path>
                <path d="M67,108 L199.4,108" id="Shape" stroke="#512DA8" stroke-width="2.126" fill="#B2B4DB"></path>
                <path d="M67,118 L122.1,118" id="Shape" stroke="#512DA8" stroke-width="2.126" fill="#B2B4DB"></path>
                <path d="M67,137.4 L199.4,137.4" id="Shape" stroke="#512DA8" stroke-width="2.126" fill="#B2B4DB"></path>
                <path d="M67,147.4 L199.4,147.4" id="Shape" stroke="#512DA8" stroke-width="2.126" fill="#B2B4DB"></path>
                <path d="M67,157.4 L122.1,157.4" id="Shape" stroke="#512DA8" stroke-width="2.126" fill="#B2B4DB"></path>
            </g>
            <g id="Group" transform="translate(144.000000, 7.000000)" stroke="#512DA8" stroke-width="2.126">
                <path d="M21.2,1.7 C21.2,5.7 12.9,9 8.9,9 L4.5,9 L4.5,16.4 L8.9,16.4 C12.9,16.4 21.2,19.7 21.2,23.7 L21.2,24.3 C21.4,24.5 22,24.6 22.2,24.8 L22.2,0.6 C22,0.8 21.4,1 21.2,1.1 L21.2,1.7 L21.2,1.7 Z" id="Shape" fill="#CDD5D7"></path>
                <path d="M26,24.8 C24.7,24.8 23.7,23.9 23.7,22.6 L23.7,2.9 C23.7,1.6 24.7,0.7 26,0.7 C47.3,1.5 56.6,2.3 77.9,3.1 C79.1,3.1 80.2,4 80.2,5 L80.2,20.5 C80.2,21.5 79.2,22.3 77.9,22.4 C56.6,23.2 47.3,24 26,24.8 L26,24.8 Z" id="Shape" fill="#FCBE0F"></path>
                <path d="M32.8,12.7 C32.8,10.3 33.7,8.1 35.4,6.4 C35.9,5.9 37.4,5.5 38.4,5.5 C53.3,5.8 58,6.2 78.9,6.8 L78.9,18.5 C58.2,19.1 53.6,19.5 38.4,19.8 C37.3,19.8 35.9,19.4 35.4,18.9 C33.7,17.4 32.8,15.1 32.8,12.7 L32.8,12.7 L32.8,12.7 Z" id="Shape" fill="#FCBE0F"></path>
                <rect id="Rectangle-path" fill="#CDD5D7" x="22.1" y="0.6" width="4.3" height="24.2"></rect>
                <path d="M3.3,14.8 L3.3,10.6 L0.4,10.6 L1.5,14.8 L3.3,14.8 Z" id="Shape" fill="#3A3E94"></path>
            </g>
            <g id="Group" transform="translate(1.000000, 128.000000)" stroke-width="2.126" stroke="#512DA8">
                <g fill="#E6E6E6">
                    <rect id="Rectangle-path" x="0.6" y="0.7" width="82" height="47.3"></rect>
                    <path d="M82.6,0.6 L78.6,0.6 L45.6,0.6 L41.6,0.6 L37.6,0.6 L4.6,0.6 L0.6,0.6 L10.8,9.8 L18,16.2 C18.8,17 20,17.9 21.1,18.9 L30.7,27.5 L38.6,34.5 C40.3,36 43,36 44.7,34.5 L52.6,27.5 L62.2,18.9 C63.3,17.9 64.4,16.9 65.3,16.2 L72.5,9.8 L82.6,0.6 L82.6,0.6 Z" id="Shape"></path>
                </g>
                <path d="M0.9,47.6 L27.3,24.8" id="Shape" fill="#FFFFFF"></path>
                <path d="M82.5,47.6 L56.2,24.8" id="Shape" fill="#FFFFFF"></path>
            </g>
            <g id="Group" transform="translate(31.000000, 157.000000)" stroke="#512DA8" stroke-width="2.126">
                <path d="M80.1,13.9 L75.3,38 L70.5,62.5 L49.5,76.6 L0.5,67 L4.1,48.8 L8.8,24.9 L13.6,0.8 L80.1,13.9 Z" id="Shape" fill="#8DC2D5"></path>
                <path d="M53,59.1 L70.5,62.5 L49.5,76.6 L53,59.1 Z" id="Shape" fill="#8DC2D5"></path>
                <path d="M21,41.7 L59,49.2" id="Shape"></path>
                <path d="M22.2,35.4 L52.1,41.3" id="Shape"></path>
                <path d="M24.1,25.8 L62.2,33.3" id="Shape"></path>
                <path d="M25.3,19.5 L55.2,25.4" id="Shape"></path>
            </g>
            <g id="Group" transform="translate(228.000000, 50.000000)" stroke="#512DA8" fill="#FFFFFF">
                <circle id="Oval" stroke-width="2.126" cx="38.4" cy="38.7" r="37.8"></circle>
                <circle id="Oval" stroke-width="2.126" cx="38.4" cy="38.7" r="32.1"></circle>
                <g transform="translate(12.000000, 12.000000)">
                    <g id="Shape" stroke-width="2.126">
                        <path d="M26.4,0.3 L26.4,5.8"></path>
                        <path d="M39.6,3.9 L36.9,8.6"></path>
                        <path d="M49.3,13.5 L44.5,16.3"></path>
                        <path d="M52.8,26.7 L47.3,26.7"></path>
                        <path d="M49.3,39.9 L44.5,37.2"></path>
                        <path d="M39.6,49.6 L36.9,44.9"></path>
                        <path d="M26.4,53.1 L26.4,47.7"></path>
                        <path d="M13.2,49.6 L15.9,44.9"></path>
                        <path d="M3.5,39.9 L8.3,37.2"></path>
                        <path d="M0,26.7 L5.5,26.7"></path>
                        <path d="M3.5,13.5 L8.3,16.3"></path>
                        <path d="M13.2,3.9 L15.9,8.6"></path>
                    </g>
                    <g transform="translate(14.000000, 12.000000)">
                        <circle id="Oval" stroke-width="2.12598449" transform="translate(12.360020, 14.715310) rotate(-48.125220) translate(-12.360020, -14.715310) " cx="12.36002" cy="14.71531" r="1.6999876"></circle>
                        <path d="M25,0.7 L13.5,13.5" id="Shape" stroke-width="2.126"></path>
                        <path d="M0.4,4 L11.7,14.1" id="Shape" stroke-width="2.126"></path>
                    </g>
                </g>
            </g>
            <g id="Group" transform="translate(507.000000, 233.000000)" stroke="#512DA8">
                <path d="M39.8,30.8 C31,28.2 21.6,28.2 12.8,30.8 C10.2,31.6 8.2,34.6 8.2,37.1 L8.2,44.6 C10.6,47 13.4,49 16.5,50.3 L16.5,38.7 L16.5,50.3 C19.7,51.7 23.1,52.4 26.8,52.4 C30,52.4 33.2,51.8 36.1,50.7 L36.1,38.7 L36.1,50.7 C39.1,49.5 42,47.8 44.4,45.5 L44.4,37.1 C44.4,34.6 42.4,31.6 39.8,30.8 L39.8,30.8 Z" id="Shape" stroke-width="2.126" fill="#FFFFFF"></path>
                <circle id="Oval" stroke-width="1.4173" fill="#FFFFFF" cx="26.3" cy="19.3" r="9.2"></circle>
                <path d="M45.2,8.1 C40.3,3.2 33.8,0.5 26.8,0.5 C19.9,0.5 13.3,3.2 8.4,8.2 C3.5,13.1 0.8,19.6 0.8,26.5 C0.8,33.6 3.6,40 8.2,44.6 L8.2,37.1 C8.2,34.5 10.2,31.6 12.8,30.8 C21.6,28.2 31,28.2 39.8,30.8 C42.4,31.6 44.4,34.6 44.4,37.1 L44.4,45.5 C44.7,45.2 45,45 45.2,44.7 C50.1,39.8 52.8,33.3 52.8,26.4 C52.8,19.5 50.1,13 45.2,8.1 L45.2,8.1 Z M26.3,28.5 C21.2,28.5 17.1,24.4 17.1,19.3 C17.1,14.2 21.2,10.1 26.3,10.1 C31.4,10.1 35.5,14.2 35.5,19.3 C35.5,24.4 31.4,28.5 26.3,28.5 L26.3,28.5 Z" id="Shape" stroke-width="2.126" fill="#B7BEC0"></path>
            </g>
        </g>
    </g>
</svg>